<?xml version="1.0" encoding="utf-8"?><svg xml:space="preserve" viewBox="0 0 100 100" y="0" x="0" xmlns="http://www.w3.org/2000/svg" id="圖層_1" version="1.1" width="200px" height="200px" xmlns:xlink="http://www.w3.org/1999/xlink" style="width:100%;height:100%;background-size:initial;background-repeat-y:initial;background-repeat-x:initial;background-position-y:initial;background-position-x:initial;background-origin:initial;background-image:initial;background-color:rgb(241, 242, 243);background-clip:initial;background-attachment:initial;animation-play-state:paused" ><g class="ldl-scale" style="transform-origin:50% 50%;transform:rotate(0deg) scale(0.8, 0.8);animation-play-state:paused" ><path fill="#d1d1d1" d="M76.971 7.5H23.029a4.087 4.087 0 0 0-4.087 4.087v76.828a4.087 4.087 0 0 0 4.087 4.087h13.308l6.001-.031h15.325l6.025.031h13.284a4.088 4.088 0 0 0 4.087-4.087v-35.35-41.478A4.09 4.09 0 0 0 76.971 7.5z" style="fill:rgb(10, 67, 8);animation-play-state:paused" ></path>
<path fill="#454545" d="M50 37.74c-5.702 0-10.507 3.912-11.872 9.195h23.744C60.508 41.653 55.702 37.74 50 37.74zm0 24.519c5.702 0 10.508-3.913 11.872-9.195H38.128c1.365 5.282 6.17 9.195 11.872 9.195zm13.717-50.672v6.008h-.043a3.065 3.065 0 0 1-3.05 2.767h-21.25a3.065 3.065 0 0 1-3.038-3.455v-5.32H23.029v35.349h8.842C33.335 38.25 40.905 31.611 50 31.611c9.096 0 16.665 6.639 18.129 15.325h8.842V11.587H63.717zm4.412 41.477C66.665 61.75 59.095 68.389 50 68.389S33.336 61.75 31.871 53.064h-8.842v35.349h13.308v-5.138a3.065 3.065 0 0 1 3.038-3.455h21.25a3.061 3.061 0 0 1 3.056 2.903h.006v.114l.002.047-.002.047v5.48h13.284V53.064h-8.842z" style="fill:rgb(96, 163, 99);animation-play-state:paused" ></path>
<g style="animation-play-state:paused" ><path fill="#454545" d="M57.662 87.564H42.338a2.14 2.14 0 1 1 0-4.282h15.325a2.14 2.14 0 1 1-.001 4.282z" style="fill:rgb(96, 163, 99);animation-play-state:paused" ></path></g>
<g style="animation-play-state:paused" ><path fill="#454545" d="M57.662 16.731H42.338a2.14 2.14 0 1 1 0-4.282h15.325a2.14 2.14 0 1 1-.001 4.282z" style="fill:rgb(96, 163, 99);animation-play-state:paused" ></path></g>
<metadata xmlns:d="https://loading.io/stock/" style="animation-play-state:paused" ><d:name style="animation-play-state:paused" >pitch</d:name>
<d:tags style="animation-play-state:paused" >field,stadium,game,sport,pitch,map</d:tags>
<d:license style="animation-play-state:paused" >free</d:license>
<d:slug style="animation-play-state:paused" >tr0x0w</d:slug></metadata></g><!-- generated by https://loading.io/ --></svg>