<?xml version="1.0" encoding="utf-8"?><svg xml:space="preserve" viewBox="0 0 100 100" y="0" x="0" xmlns="http://www.w3.org/2000/svg" id="圖層_1" version="1.1" width="200px" height="200px" xmlns:xlink="http://www.w3.org/1999/xlink" style="width:100%;height:100%;background-size:initial;background-repeat-y:initial;background-repeat-x:initial;background-position-y:initial;background-position-x:initial;background-origin:initial;background-image:initial;background-color:rgb(255, 255, 255);background-clip:initial;background-attachment:initial;animation-play-state:paused" ><g class="ldl-scale" style="transform-origin:50% 50%;transform:rotate(0deg) scale(0.8, 0.8);animation-play-state:paused" ><g style="animation-play-state:paused" ><path fill="#a0c8d7" d="M60.688 89.375H39.313c-8.595 0-15.563-6.968-15.563-15.563V70c0-13.876 11.249-25.125 25.125-25.125h2.25C65.001 44.875 76.25 56.124 76.25 70v3.813c0 8.594-6.968 15.562-15.562 15.562z" style="fill:rgb(245, 230, 200);animation-play-state:paused" ></path>
<circle fill="#f5e6c8" r="21.25" cy="31.875" cx="50" style="fill:rgb(245, 230, 200);animation-play-state:paused" ></circle></g>
<g style="animation-play-state:paused" ><circle stroke-miterlimit="10" stroke-width="4" stroke="#333" fill="#fff" r="14.738" cy="69.814" cx="69.793" style="stroke:rgb(51, 51, 51);fill:rgb(255, 255, 255);animation-play-state:paused" ></circle>
<g style="animation-play-state:paused" ><path fill="#666" d="M63.147 71.813h-.5a2 2 0 0 1 0-4h.5a2 2 0 0 1 0 4z" style="fill:rgb(102, 102, 102);animation-play-state:paused" ></path></g>
<g style="animation-play-state:paused" ><path fill="#666" d="M70.197 71.813h-.708a2 2 0 0 1 0-4h.708a2 2 0 0 1 0 4z" style="fill:rgb(102, 102, 102);animation-play-state:paused" ></path></g>
<g style="animation-play-state:paused" ><path fill="#666" d="M76.938 71.813h-.5a2 2 0 0 1 0-4h.5a2 2 0 0 1 0 4z" style="fill:rgb(102, 102, 102);animation-play-state:paused" ></path></g></g>
<metadata xmlns:d="https://loading.io/stock/" style="animation-play-state:paused" ><d:name style="animation-play-state:paused" >setting</d:name>


<d:tags style="animation-play-state:paused" >setting,config,edit,more,typing,sending,input,texting,user,avatar,account,profile,customer,guest</d:tags>


<d:license style="animation-play-state:paused" >by</d:license>


<d:slug style="animation-play-state:paused" >nnkwxu</d:slug></metadata></g><!-- generated by https://loading.io/ --></svg>