
    <svg className="ld ld-zoom-in" style={{animationDuration: "1s"}} viewBox="0 0 100 100"
    xmlns="http://www.w3.org/2000/svg"
    width="500px" height="500px">
    <g fill="#61DAFB">
    <path fill="#a0c8d7"
          d="M39.793 40.979h20.413c.993 0 1.798-.805 1.798-1.798v-5.032h-.007c-.054-5.044-3.22-9.332-7.666-11.057 2.587-1.622 4.207-4.642 3.773-8.008-.474-3.677-3.473-6.624-7.157-7.039a8.178 8.178 0 0 0-9.124 8.122 8.161 8.161 0 0 0 3.843 6.924C41.22 24.816 38.054 29.104 38 34.148h-.007v5.032a1.801 1.801 0 0 0 1.8 1.799z"></path>
    <path
        d="M16.387 55.125h31.212v7.592h4.802v-7.592h31.212v7.592h4.802V50.324H52.401V45.67h-4.802v4.654H11.585v12.393h4.802z"
        fill="#333"></path>
    <path fill="#849b87"
          d="M17.229 78.619a6.11 6.11 0 0 0 2.824-5.994c-.354-2.752-2.6-4.958-5.357-5.269a6.122 6.122 0 0 0-6.83 6.08 6.109 6.109 0 0 0 2.877 5.183c-3.328 1.291-5.698 4.501-5.738 8.276H5v3.767c0 .743.603 1.346 1.346 1.346h15.28c.743 0 1.346-.603 1.346-1.346v-3.767h-.005c-.041-3.775-2.411-6.985-5.738-8.276z"></path>
    <path fill="#849b87"
          d="M53.243 78.619a6.11 6.11 0 0 0 2.824-5.994c-.354-2.752-2.6-4.958-5.357-5.269a6.122 6.122 0 0 0-6.83 6.08 6.109 6.109 0 0 0 2.877 5.183c-3.328 1.291-5.698 4.501-5.738 8.276h-.005v3.767c0 .743.603 1.346 1.346 1.346h15.28c.743 0 1.346-.603 1.346-1.346v-3.767h-.005c-.04-3.775-2.41-6.985-5.738-8.276z"></path>
    <path fill="#849b87"
          d="M94.995 86.896c-.04-3.775-2.41-6.985-5.738-8.276a6.11 6.11 0 0 0 2.824-5.994c-.354-2.752-2.6-4.958-5.357-5.269a6.122 6.122 0 0 0-6.83 6.08 6.109 6.109 0 0 0 2.877 5.183c-3.328 1.291-5.698 4.501-5.738 8.276h-.005v3.767c0 .743.603 1.346 1.346 1.346h15.28c.743 0 1.346-.603 1.346-1.346v-3.767h-.005z"></path>
    </g>
    </svg>